<?xml version="1.0" encoding="utf-8"?>
<!-- Generator: Adobe Illustrator 21.0.0, SVG Export Plug-In . SVG Version: 6.00 Build 0)  -->
<!DOCTYPE svg PUBLIC "-//W3C//DTD SVG 1.1//EN" "http://www.w3.org/Graphics/SVG/1.1/DTD/svg11.dtd">
<svg version="1.1" id="Laag_1" xmlns="http://www.w3.org/2000/svg" xmlns:xlink="http://www.w3.org/1999/xlink" x="0px" y="0px"
	 width="1275px" height="850px" viewBox="0 0 1275 850" style="enable-background:new 0 0 1275 850;" xml:space="preserve">
<style type="text/css">
	.st0{fill:#FFB511;}
	.st1{fill:#0F1941;}
	.st2{fill:none;}
</style>
<path class="st0" d="M748.1,573.4L748.1,573.4C661.4,573.4,591,503,591,416.3v0c0-86.8,70.3-157.1,157.1-157.1h0
	c86.8,0,157.1,70.3,157.1,157.1v0C905.3,503,834.9,573.4,748.1,573.4z"/>
<path class="st1" d="M701.9,416.2c0-12.8-5.2-24.3-13.5-32.7L577.5,272.7c-18-18-47.3-18-65.3,0c-18,18-18,47.3,0,65.3l32,32H415.4
	c-25.5,0-46.2,20.7-46.2,46.2c0,25.5,20.7,46.2,46.2,46.2h128.8l-32,32c-18,18-18,47.3,0,65.3c18,18,47.3,18,65.3,0l110.9-110.9
	C696.7,440.5,701.9,429,701.9,416.2z"/>
<rect class="st2" width="1275" height="850"/>
<g>
</g>
<g>
</g>
<g>
</g>
<g>
</g>
<g>
</g>
<g>
</g>
<g>
</g>
<g>
</g>
<g>
</g>
<g>
</g>
<g>
</g>
<g>
</g>
<g>
</g>
<g>
</g>
<g>
</g>
</svg>
