<?xml version="1.0" encoding="utf-8"?>
<!-- Generator: Adobe Illustrator 21.0.0, SVG Export Plug-In . SVG Version: 6.00 Build 0)  -->
<!DOCTYPE svg PUBLIC "-//W3C//DTD SVG 1.1//EN" "http://www.w3.org/Graphics/SVG/1.1/DTD/svg11.dtd">
<svg version="1.1" id="Laag_1" xmlns="http://www.w3.org/2000/svg" xmlns:xlink="http://www.w3.org/1999/xlink" x="0px" y="0px"
	 width="1275px" height="850px" viewBox="0 0 1275 850" style="enable-background:new 0 0 1275 850;" xml:space="preserve">
<style type="text/css">
	.st0{fill:none;}
	.st1{fill:#E74536;}
	.st2{fill:#FFB511;}
</style>
<rect class="st0" width="1275" height="850"/>
<path class="st1" d="M540.9,179.8L356.2,364.6c-3.5,3.5-5.4,8.2-5.4,13.1v269.5c0,10.2,8.3,18.5,18.5,18.5h369.6
	c10.2,0,18.5-8.3,18.5-18.5V377.7c0-4.9-1.9-9.6-5.4-13.1L567.1,179.8C559.9,172.6,548.2,172.6,540.9,179.8z"/>
<g>
	<path class="st2" d="M845.4,439.3L734.6,328.3c-18-18-47.3-18-65.3,0c-18,18-18,47.3,0,65.3l31.9,32H572.4
		c-25.4,0-46.1,20.6-46.1,46.1c0,25.4,20.6,46.1,46.1,46.1v0.3h128.9l-31.9,31.8c-0.1,0.1-0.1,0.1-0.2,0.2c-18,18-18,47.3,0,65.3
		c18,18,47.3,18,65.3,0c0,0,0,0,0,0l0,0L843.2,507c0.7-0.7,1.5-1.3,2.2-2C863.5,486.8,863.5,457.5,845.4,439.3z"/>
</g>
<g>
</g>
<g>
</g>
<g>
</g>
<g>
</g>
<g>
</g>
<g>
</g>
<g>
</g>
<g>
</g>
<g>
</g>
<g>
</g>
<g>
</g>
<g>
</g>
<g>
</g>
<g>
</g>
<g>
</g>
</svg>
