<?xml version="1.0" encoding="utf-8"?>
<!-- Generator: Adobe Illustrator 21.0.0, SVG Export Plug-In . SVG Version: 6.00 Build 0)  -->
<!DOCTYPE svg PUBLIC "-//W3C//DTD SVG 1.1//EN" "http://www.w3.org/Graphics/SVG/1.1/DTD/svg11.dtd">
<svg version="1.1" id="Laag_1" xmlns="http://www.w3.org/2000/svg" xmlns:xlink="http://www.w3.org/1999/xlink" x="0px" y="0px"
	 width="1275px" height="850px" viewBox="0 0 1275 850" style="enable-background:new 0 0 1275 850;" xml:space="preserve">
<style type="text/css">
	.st0{fill:none;}
	.st1{fill:#0F1941;}
	.st2{fill:#F7F5F0;}
	.st3{fill:#FFB511;}
</style>
<g>
	<rect class="st0" width="1275" height="850"/>
</g>
<path class="st1" d="M757.6,720.7H517.4c-20.4,0-37-16.5-37-37V314.1c0-20.4,16.5-37,37-37h240.2c20.4,0,37,16.5,37,37v369.6
	C794.6,704.1,778,720.7,757.6,720.7z"/>
<circle class="st2" cx="545.2" cy="655.9" r="27.6"/>
<circle class="st2" cx="637.6" cy="655.9" r="27.6"/>
<circle class="st3" cx="730" cy="655.9" r="27.6"/>
<circle class="st2" cx="545.2" cy="563.7" r="27.6"/>
<circle class="st2" cx="637.6" cy="563.7" r="27.6"/>
<circle class="st2" cx="730" cy="563.7" r="27.6"/>
<circle class="st2" cx="545.2" cy="471.3" r="27.6"/>
<circle class="st2" cx="637.6" cy="471.3" r="27.6"/>
<circle class="st2" cx="730" cy="471.3" r="27.6"/>
<path class="st2" d="M747.7,388H527.3c-5.5,0-9.9-4.4-9.9-9.9v-54.1c0-5.5,4.4-9.9,9.9-9.9h220.4c5.5,0,9.9,4.4,9.9,9.9v54.1
	C757.6,383.6,753.2,388,747.7,388z"/>
<path class="st3" d="M720.7,110.9H480.4c20.4,0,37,16.5,37,37v129.3h240.2V147.8C757.6,127.4,741.1,110.9,720.7,110.9z"/>
<g>
</g>
<g>
</g>
<g>
</g>
<g>
</g>
<g>
</g>
<g>
</g>
<g>
</g>
<g>
</g>
<g>
</g>
<g>
</g>
<g>
</g>
<g>
</g>
<g>
</g>
<g>
</g>
<g>
</g>
</svg>
