<?xml version="1.0" encoding="utf-8"?>
<!-- Generator: Adobe Illustrator 21.0.0, SVG Export Plug-In . SVG Version: 6.00 Build 0)  -->
<!DOCTYPE svg PUBLIC "-//W3C//DTD SVG 1.1//EN" "http://www.w3.org/Graphics/SVG/1.1/DTD/svg11.dtd">
<svg version="1.1" id="Laag_1" xmlns="http://www.w3.org/2000/svg" xmlns:xlink="http://www.w3.org/1999/xlink" x="0px" y="0px"
	 width="1275px" height="850px" viewBox="0 0 1275 850" style="enable-background:new 0 0 1275 850;" xml:space="preserve">
<style type="text/css">
	.st0{fill:none;}
	.st1{fill:#F7F5F0;}
	.st2{fill:#0F1941;}
	.st3{fill:#FFB511;}
</style>
<rect class="st0" width="1275" height="850"/>
<path class="st1" d="M829,665.2H461.2c-10.7,0-19.4-8.7-19.4-19.4V167.2c0-10.7,8.7-19.4,19.4-19.4H829c10.7,0,19.4,8.7,19.4,19.4
	v478.7C848.4,656.6,839.7,665.2,829,665.2z"/>
<rect x="1.6" class="st0" width="1274" height="850"/>
<g>
	<path class="st2" d="M776.1,277.2H517.5c-10.3,0-18.6-8.2-18.6-18.5s8.3-18.5,18.6-18.5h258.6c10.3,0,18.6,8.2,18.6,18.5
		S786.3,277.2,776.1,277.2z"/>
</g>
<g>
	<path class="st2" d="M776.1,351.1H517.5c-10.3,0-18.6-8.2-18.6-18.5s8.3-18.5,18.6-18.5h258.6c10.3,0,18.6,8.2,18.6,18.5
		S786.3,351.1,776.1,351.1z"/>
</g>
<g>
	<path class="st2" d="M628.2,425H517.5c-10.3,0-18.6-8.2-18.6-18.5s8.3-18.5,18.6-18.5h110.7c10.3,0,18.6,8.2,18.6,18.5
		S638.4,425,628.2,425z"/>
</g>
<path class="st3" d="M813,508.2c0-45.9-37.2-83.2-83.2-83.2c-45.9,0-83.2,37.2-83.2,83.2c0,28.8,14.7,54.2,37,69.1v106.3
	c0,0.2,0,0.4,0,0.5c0.1,4.6,1.9,9.1,5.4,12.6c0.3,0.3,0.6,0.5,0.9,0.8c0.2,0.1,0.3,0.3,0.5,0.4c0.3,0.2,0.6,0.4,0.8,0.6
	c0.2,0.2,0.4,0.3,0.6,0.5c0.3,0.2,0.6,0.4,0.9,0.5c0.2,0.1,0.5,0.3,0.7,0.4c0.3,0.2,0.6,0.3,0.9,0.4c0.3,0.1,0.5,0.3,0.8,0.4
	c0.3,0.1,0.5,0.2,0.8,0.3c0.3,0.1,0.6,0.2,0.9,0.3c0.3,0.1,0.5,0.1,0.8,0.2c0.3,0.1,0.7,0.2,1,0.2c0.2,0,0.5,0.1,0.8,0.1
	c0.4,0.1,0.7,0.1,1.1,0.1c0.2,0,0.4,0,0.6,0c0.4,0,0.8,0.1,1.2,0.1c5,0,9.4-2,12.7-5.1c0.1-0.1,0.3-0.2,0.4-0.3l14.6-14.6l14.6,14.6
	c0.1,0.1,0.3,0.2,0.4,0.4c3.3,3.2,7.8,5.1,12.7,5.1c0.4,0,0.8,0,1.2-0.1c0.2,0,0.4,0,0.6,0c0.4,0,0.7-0.1,1.1-0.1
	c0.3,0,0.5-0.1,0.8-0.1c0.3-0.1,0.7-0.2,1-0.2c0.3-0.1,0.5-0.1,0.8-0.2c0.3-0.1,0.6-0.2,0.9-0.3c0.3-0.1,0.5-0.2,0.8-0.3
	c0.3-0.1,0.5-0.2,0.8-0.4c0.3-0.1,0.6-0.3,0.9-0.4c0.2-0.1,0.5-0.3,0.7-0.4c0.3-0.2,0.6-0.3,0.9-0.5c0.2-0.1,0.4-0.3,0.6-0.5
	c0.3-0.2,0.6-0.4,0.8-0.6c0.2-0.1,0.3-0.3,0.5-0.4c0.3-0.3,0.6-0.5,0.9-0.8c3.5-3.5,5.3-8,5.4-12.6c0-0.2,0-0.4,0-0.5V577.3
	C798.4,562.4,813,537,813,508.2z"/>
<g>
</g>
<g>
</g>
<g>
</g>
<g>
</g>
<g>
</g>
<g>
</g>
<g>
</g>
<g>
</g>
<g>
</g>
<g>
</g>
<g>
</g>
<g>
</g>
<g>
</g>
<g>
</g>
<g>
</g>
</svg>
